<svg width="800" height="800" viewBox="0 0 64 64" xmlns="http://www.w3.org/2000/svg"><defs><style>.cls-2{fill:#6e5b5e}</style></defs><g id="main"><path d="M60.35 55.57a7 7 0 0 1-5.3 2.43H9a7 7 0 0 1-7-8l3-20.15A1 1 0 0 1 6 29h52a1 1 0 0 1 1 .85L62 50a7 7 0 0 1-1.65 5.57" style="fill:#ab7c73"/><path class="cls-2" d="M40 14H24a1 1 0 0 1-1-1V9a3 3 0 0 1 3-3h12a3 3 0 0 1 3 3v4a1 1 0 0 1-1 1m-15-2h14V9a1 1 0 0 0-1-1H26a1 1 0 0 0-1 1Z"/><path d="M60 12H4a3 3 0 0 0-3 3v6.23a10.94 10.94 0 0 0 6.92 10.21l19.71 7.89a.9.9 0 0 0 .37.07h8a.9.9 0 0 0 .37-.07l19.71-7.89A10.94 10.94 0 0 0 63 21.23V15a3 3 0 0 0-3-3" style="fill:#d6b5ab"/><path class="cls-2" d="M37 39v19H27V39a5 5 0 0 1 10 0"/><path d="M32 42a1 1 0 0 1-1-1v-2a1 1 0 0 1 2 0v2a1 1 0 0 1-1 1" style="fill:#eedecf"/></g></svg>